Coordinates
version=1
nRows=27
nColumns=12
inDegrees=yes

Units are S.I. units (second, meters, Newtons, ...)
Angles are in degrees

endheader
time	SC_y	SC_z	SC_x	AC_y	AC_z	AC_x	GH_y	GH_z	GH_yy	EL_x	PS_y
       0.0              -56.66         -4.726          51.08          30.82          -5.28          -12.1           75.1         -11.78         -178.1          118.6           72.5
  0.006175              -56.65         -4.721          51.08          30.82         -5.281          -12.1          75.09         -11.77         -178.0          118.6           72.5
   0.01235              -56.65         -4.716          51.08          30.82         -5.282          -12.1          75.09         -11.77         -178.0          118.6           72.5
   0.01853              -56.65          -4.71          51.08          30.82         -5.283         -12.09          75.08         -11.76         -177.9          118.6          72.49
    0.0247              -56.65         -4.704          51.08          30.83         -5.284         -12.09          75.07         -11.75         -177.9          118.6          72.49
   0.03088              -56.65         -4.697          51.08          30.83         -5.285         -12.09          75.06         -11.74         -177.8          118.6          72.49
   0.03705              -56.65          -4.69          51.08          30.83         -5.286         -12.08          75.05         -11.73         -177.8          118.6          72.49
   0.04323              -56.64         -4.683          51.08          30.83         -5.287         -12.08          75.04         -11.72         -177.7          118.6          72.48
    0.0494              -56.64         -4.675          51.07          30.84         -5.288         -12.07          75.03         -11.71         -177.6          118.5          72.48
   0.05558              -56.64         -4.666          51.07          30.84          -5.29         -12.07          75.02         -11.69         -177.5          118.5          72.48
   0.06175              -56.64         -4.657          51.07          30.84         -5.291         -12.07          75.01         -11.68         -177.5          118.5          72.47
   0.06793              -56.63         -4.647          51.07          30.85         -5.293         -12.06           75.0         -11.66         -177.4          118.5          72.47
    0.0741              -56.63         -4.636          51.07          30.85         -5.294         -12.06          74.98         -11.65         -177.3          118.5          72.47
   0.08028              -56.63         -4.625          51.07          30.85         -5.296         -12.05          74.97         -11.63         -177.2          118.5          72.46
   0.08645              -56.62         -4.612          51.06          30.86         -5.298         -12.04          74.95         -11.61         -177.1          118.5          72.46
   0.09263              -56.62         -4.598          51.06          30.86           -5.3         -12.04          74.93         -11.59         -176.9          118.5          72.45
    0.0988              -56.61         -4.584          51.06          30.87         -5.302         -12.03          74.91         -11.57         -176.8          118.4          72.45
     0.105              -56.61         -4.568          51.06          30.88         -5.305         -12.02          74.89         -11.55         -176.7          118.4          72.44
    0.1112               -56.6          -4.55          51.05          30.88         -5.308         -12.01          74.87         -11.52         -176.5          118.4          72.43
    0.1173               -56.6         -4.531          51.05          30.89         -5.311          -12.0          74.84         -11.49         -176.3          118.4          72.43
    0.1235              -56.59          -4.51          51.05           30.9         -5.314         -11.99          74.81         -11.46         -176.2          118.4          72.42
    0.1297              -56.58         -4.486          51.04          30.91         -5.318         -11.98          74.78         -11.43         -175.9          118.3          72.41
    0.1359              -56.58         -4.461          51.04          30.91         -5.322         -11.97          74.75         -11.39         -175.7          118.3           72.4
     0.142              -56.57         -4.432          51.03          30.93         -5.326         -11.95          74.71         -11.35         -175.5          118.3          72.39
    0.1482              -56.56           -4.4          51.03          30.94         -5.331         -11.94          74.67          -11.3         -175.2          118.2          72.37
    0.1544              -56.55         -4.365          51.02          30.95         -5.337         -11.92          74.62         -11.25         -174.9          118.2          72.36
    0.1606              -56.54         -4.325          51.01          30.96         -5.343          -11.9          74.57         -11.19         -174.5          118.2          72.35
